<svg width="20" height="20" viewBox="0 0 20 20" fill="none" xmlns="http://www.w3.org/2000/svg">
<path fill-rule="evenodd" clip-rule="evenodd" d="M8.6323 0.346318C8.86061 0.217894 9.13939 0.217894 9.3677 0.346318L17.3677 4.84632C17.6039 4.97916 17.75 5.22904 17.75 5.5V10C17.75 10.4142 17.4142 10.75 17 10.75C16.5858 10.75 16.25 10.4142 16.25 10V6.78239L9.75 10.4386V19C9.75 19.2664 9.60863 19.5129 9.37863 19.6474C9.14863 19.7819 8.86453 19.7843 8.6323 19.6537L0.632304 15.1537C0.396146 15.0208 0.25 14.771 0.25 14.5V5.5C0.25 5.22904 0.396146 4.97916 0.632304 4.84632L8.6323 0.346318ZM9 9.13949L15.4702 5.5L9 1.86051L2.5298 5.5L9 9.13949ZM1.75 6.78239V14.0614L8.25 17.7176V10.4386L1.75 6.78239ZM15.5303 12.4697C15.8232 12.7626 15.8232 13.2374 15.5303 13.5303L13.8107 15.25H19C19.4142 15.25 19.75 15.5858 19.75 16C19.75 16.4142 19.4142 16.75 19 16.75H13.8107L15.5303 18.4697C15.8232 18.7626 15.8232 19.2374 15.5303 19.5303C15.2374 19.8232 14.7626 19.8232 14.4697 19.5303L11.4697 16.5303C11.1768 16.2374 11.1768 15.7626 11.4697 15.4697L14.4697 12.4697C14.7626 12.1768 15.2374 12.1768 15.5303 12.4697Z" fill="#394152"/>
</svg>
